<svg width="44" height="45" viewBox="0 0 44 45" fill="none" xmlns="http://www.w3.org/2000/svg">
<path fill-rule="evenodd" clip-rule="evenodd" d="M26.4897 18.8203C26.0915 20.0956 25.4825 21.2772 24.6991 22.3235C22.8824 24.757 20.1392 26.4592 16.9899 26.9068C16.446 26.9875 15.889 27.0266 15.3242 27.0266C14.5721 27.0266 13.8355 26.9563 13.1224 26.8183C10.1996 26.2614 7.66195 24.6191 5.94938 22.3235C5.16598 21.2772 4.55695 20.0956 4.15874 18.8203C3.17753 19.8614 2.34207 21.0404 1.68359 22.3235C2.34467 23.6066 3.17753 24.7831 4.15874 25.8241C6.84991 28.6871 10.629 30.5168 14.8375 30.6469C14.9989 30.6521 15.1603 30.6547 15.3242 30.6547C16.5969 30.6547 17.8332 30.4985 19.0148 30.207C21.922 29.4887 24.5039 27.9375 26.4897 25.8241C27.4709 24.7831 28.3038 23.6066 28.9649 22.3235C28.3064 21.0404 27.4709 19.8614 26.4897 18.8203Z" fill="#EDA92F"/>
<path fill-rule="evenodd" clip-rule="evenodd" d="M27.8383 34.2241C27.2162 34.2241 26.6046 34.1747 26.0086 34.081C25.4724 35.2834 24.7411 36.3791 23.8483 37.3265C21.7168 39.596 18.6872 41.0145 15.3246 41.0145C8.86472 41.0145 3.62813 35.7779 3.62813 29.3155C3.62813 28.1 3.81292 26.9262 4.15908 25.8227C4.55729 24.55 5.16632 23.3683 5.94972 22.3221C7.68831 19.9901 10.278 18.3295 13.258 17.7986C13.9269 17.6789 14.6192 17.6164 15.3246 17.6164C15.9466 17.6164 16.5582 17.6659 17.1543 17.7596C20.2332 18.2437 22.914 19.9302 24.6994 22.3221C25.4828 23.3683 26.0919 24.55 26.4901 25.8227C27.4713 24.7816 28.3041 23.6052 28.9652 22.3221C28.3067 21.0389 27.4713 19.8599 26.4901 18.8189C24.5719 16.7784 22.1019 15.2636 19.3171 14.514C18.0444 14.1705 16.7066 13.9883 15.3246 13.9883C15.2517 13.9883 15.1788 13.9883 15.1059 13.9909C10.7907 14.0507 6.90751 15.8934 4.15908 18.8189C3.17787 19.8599 2.34241 21.0389 1.68393 22.3221C0.606424 24.4198 0 26.7961 0 29.3155C0 37.782 6.86066 44.6426 15.3246 44.6426C20.6288 44.6426 25.3058 41.9463 28.0569 37.8496C28.8403 36.6836 29.4649 35.4057 29.9048 34.0419C29.2359 34.1616 28.5436 34.2241 27.8383 34.2241Z" fill="#20ACCB"/>
<path fill-rule="evenodd" clip-rule="evenodd" d="M28.3249 7.20703C29.0615 8.38604 29.6419 9.67177 30.0401 11.0356C35.4485 12.0662 39.5347 16.8187 39.5347 22.5264C39.5347 28.2341 35.3808 33.0672 29.9048 34.0433C29.2359 34.163 28.5436 34.2254 27.8382 34.2254C27.2162 34.2254 26.6046 34.176 26.0086 34.0823C23.2315 33.6476 20.7798 32.2344 19.0152 30.2069C18.1693 29.2335 17.4796 28.1222 16.9903 26.9067C16.4437 25.5533 16.1418 24.075 16.1418 22.5264C16.1418 20.8295 16.5036 19.2158 17.1542 17.7609C16.5582 17.6672 15.9466 17.6177 15.3246 17.6177C14.6192 17.6177 13.9269 17.6802 13.258 17.7999C12.7739 19.2887 12.5137 20.8763 12.5137 22.5264C12.5137 24.0151 12.7271 25.457 13.1227 26.8182C13.5209 28.182 14.1013 29.4677 14.8379 30.6468C16.8653 33.8845 20.0692 36.3128 23.8483 37.3278C25.121 37.6714 26.4588 37.8536 27.8382 37.8536C27.9111 37.8536 27.984 37.8536 28.0569 37.851C36.4193 37.7338 43.1628 30.9174 43.1628 22.5264C43.1628 14.1354 36.5624 7.4647 28.3249 7.20703Z" fill="#33A754"/>
<path fill-rule="evenodd" clip-rule="evenodd" d="M30.0401 11.0354C29.327 10.8974 28.5904 10.8271 27.8383 10.8271C27.2735 10.8271 26.7165 10.8662 26.1725 10.9469C25.6832 9.73142 24.9935 8.62007 24.1477 7.64667C22.003 5.18454 18.846 3.62813 15.3246 3.62813C8.86472 3.62813 3.62813 8.86472 3.62813 15.3272C3.62813 16.5426 3.81292 17.7164 4.15908 18.82C3.17787 19.861 2.34241 21.0401 1.68393 22.3232C0.609027 20.2254 0 17.8466 0 15.3272C0 6.86326 6.86066 0 15.3246 0C20.8058 0 25.6156 2.87856 28.325 7.20682C29.0615 8.38583 29.6419 9.67155 30.0401 11.0354Z" fill="#EDA92F"/>
<path fill-rule="evenodd" clip-rule="evenodd" d="M26.1721 10.9467C23.4835 11.3293 21.089 12.628 19.3166 14.515C18.0439 14.1714 16.7061 13.9892 15.3241 13.9892C15.2512 13.9892 15.1783 13.9892 15.1055 13.9918C17.198 10.8764 20.4019 8.57304 24.1472 7.64648C24.993 8.61989 25.6828 9.73123 26.1721 10.9467Z" fill="#33A754"/>
<path d="M22.7164 21.7304C23.1563 21.9854 23.1563 22.6179 22.7164 22.8729L18.5105 25.3012C18.0707 25.5563 17.5215 25.2388 17.5215 24.7287V19.8721C17.5215 19.3645 18.0707 19.047 18.5105 19.2995L22.7164 21.7278V21.7304Z" fill="#F33D39"/>
</svg>